<svg width="36" height="36" viewBox="0 0 36 36" fill="none" xmlns="http://www.w3.org/2000/svg">
<path d="M30.0902 3.78949H8.17135C7.84423 3.78949 7.57895 4.05471 7.57895 4.38189V7.22542C7.57895 7.55261 7.84423 7.81783 8.17135 7.81783H9.05996V33.5129C9.05996 33.8401 9.32523 34.1053 9.65236 34.1053H28.6092C28.9364 34.1053 29.2016 33.8401 29.2016 33.5129V7.81783H30.0902C30.4174 7.81783 30.6827 7.55261 30.6827 7.22542V4.38189C30.6827 4.05471 30.4174 3.78949 30.0902 3.78949ZM15.6949 32.9205V26.7595H18.5384V32.9205H15.6949ZM19.7232 32.9205V26.7595H22.5667V32.9205H19.7232ZM29.4978 6.63302H21.7966C21.4695 6.63302 21.2042 6.89824 21.2042 7.22542C21.2042 7.55261 21.4695 7.81783 21.7966 7.81783H28.0168V32.9205H23.7515V26.1671C23.7515 25.8399 23.4863 25.5747 23.1591 25.5747H15.1025C14.7753 25.5747 14.5101 25.8399 14.5101 26.1671V32.9205H10.2448V7.81783H16.465C16.7922 7.81783 17.0574 7.55261 17.0574 7.22542C17.0574 6.89824 16.7922 6.63302 16.465 6.63302H8.76375V4.97429H29.4978V6.63302Z" fill="#E3CB7B"/>
<path d="M15.1024 9.2243H12.2588C11.9317 9.2243 11.6664 9.48952 11.6664 9.81671V12.6602C11.6664 12.9874 11.9317 13.2526 12.2588 13.2526H15.1024C15.4295 13.2526 15.6948 12.9874 15.6948 12.6602V9.81671C15.6948 9.48952 15.4296 9.2243 15.1024 9.2243ZM14.51 12.0678H12.8512V10.4091H14.51V12.0678Z" fill="#E3CB7B"/>
<path d="M17.7087 13.2526H20.5523C20.8794 13.2526 21.1447 12.9874 21.1447 12.6602V9.81671C21.1447 9.48952 20.8794 9.2243 20.5523 9.2243H17.7087C17.3816 9.2243 17.1163 9.48952 17.1163 9.81671V12.6602C17.1163 12.9874 17.3816 13.2526 17.7087 13.2526ZM18.3011 10.4091H19.9599V12.0678H18.3011V10.4091Z" fill="#E3CB7B"/>
<path d="M23.1594 13.2526H26.0029C26.33 13.2526 26.5953 12.9874 26.5953 12.6602V9.81671C26.5953 9.48952 26.33 9.2243 26.0029 9.2243H23.1594C22.8323 9.2243 22.567 9.48952 22.567 9.81671V12.6602C22.567 12.9874 22.8323 13.2526 23.1594 13.2526ZM23.7518 10.4091H25.4105V12.0678H23.7518V10.4091Z" fill="#E3CB7B"/>
<path d="M15.1024 14.6747H12.2588C11.9317 14.6747 11.6664 14.9399 11.6664 15.2671V18.1106C11.6664 18.4378 11.9317 18.703 12.2588 18.703H15.1024C15.4295 18.703 15.6948 18.4378 15.6948 18.1106V15.2671C15.6948 14.9399 15.4296 14.6747 15.1024 14.6747ZM14.51 17.5182H12.8512V15.8595H14.51V17.5182Z" fill="#E3CB7B"/>
<path d="M17.7087 18.703H20.5523C20.8794 18.703 21.1447 18.4378 21.1447 18.1106V15.2671C21.1447 14.9399 20.8794 14.6747 20.5523 14.6747H17.7087C17.3816 14.6747 17.1163 14.9399 17.1163 15.2671V18.1106C17.1163 18.4378 17.3816 18.703 17.7087 18.703ZM18.3011 15.8595H19.9599V17.5182H18.3011V15.8595Z" fill="#E3CB7B"/>
<path d="M23.1594 18.703H26.0029C26.33 18.703 26.5953 18.4378 26.5953 18.1106V15.2671C26.5953 14.9399 26.33 14.6747 26.0029 14.6747H23.1594C22.8323 14.6747 22.567 14.9399 22.567 15.2671V18.1106C22.567 18.4378 22.8323 18.703 23.1594 18.703ZM23.7518 15.8595H25.4105V17.5182H23.7518V15.8595Z" fill="#E3CB7B"/>
<path d="M15.1024 20.1244H12.2588C11.9317 20.1244 11.6664 20.3896 11.6664 20.7168V23.5603C11.6664 23.8875 11.9317 24.1527 12.2588 24.1527H15.1024C15.4295 24.1527 15.6948 23.8875 15.6948 23.5603V20.7168C15.6948 20.3896 15.4296 20.1244 15.1024 20.1244ZM14.51 22.9679H12.8512V21.3092H14.51V22.9679Z" fill="#E3CB7B"/>
<path d="M17.7087 24.1527H20.5523C20.8794 24.1527 21.1447 23.8875 21.1447 23.5603V20.7168C21.1447 20.3896 20.8794 20.1244 20.5523 20.1244H17.7087C17.3816 20.1244 17.1163 20.3896 17.1163 20.7168V23.5603C17.1163 23.8875 17.3816 24.1527 17.7087 24.1527ZM18.3011 21.3092H19.9599V22.9679H18.3011V21.3092Z" fill="#E3CB7B"/>
<path d="M23.1594 24.1527H26.0029C26.33 24.1527 26.5953 23.8875 26.5953 23.5603V20.7168C26.5953 20.3896 26.33 20.1244 26.0029 20.1244H23.1594C22.8323 20.1244 22.567 20.3896 22.567 20.7168V23.5603C22.567 23.8875 22.8323 24.1527 23.1594 24.1527ZM23.7518 21.3092H25.4105V22.9679H23.7518V21.3092Z" fill="#E3CB7B"/>
<path d="M19.1306 7.81817C19.2864 7.81817 19.4392 7.75478 19.5493 7.64459C19.6595 7.5344 19.723 7.38157 19.723 7.22576C19.723 7.06996 19.6596 6.91712 19.5493 6.80694C19.4392 6.69675 19.2864 6.63336 19.1306 6.63336C18.9747 6.63336 18.8219 6.69675 18.7117 6.80694C18.6015 6.91712 18.5381 7.06996 18.5381 7.22576C18.5381 7.38157 18.6015 7.5344 18.7117 7.64459C18.8219 7.75484 18.9747 7.81817 19.1306 7.81817Z" fill="#E3CB7B"/>
</svg>
