<svg width="30" height="29" viewBox="0 0 30 29" fill="none" xmlns="http://www.w3.org/2000/svg">
<path d="M27.973 28.2162H2.02702C1.70446 28.2162 1.39511 28.0924 1.16703 27.8719C0.938943 27.6514 0.810806 27.3524 0.810806 27.0406V9.01354C0.810806 8.9096 0.853518 8.80992 0.929547 8.73643C1.00558 8.66293 1.10869 8.62164 1.21621 8.62164H28.7838C28.8913 8.62164 28.9944 8.66293 29.0704 8.73643C29.1465 8.80992 29.1892 8.9096 29.1892 9.01354V27.0406C29.1892 27.3524 29.061 27.6514 28.833 27.8719C28.6049 28.0924 28.2955 28.2162 27.973 28.2162ZM1.62162 9.40543V27.0406C1.62162 27.1445 1.66433 27.2442 1.74036 27.3177C1.81639 27.3912 1.9195 27.4325 2.02702 27.4325H27.973C28.0805 27.4325 28.1836 27.3912 28.2596 27.3177C28.3357 27.2442 28.3784 27.1445 28.3784 27.0406V9.40543H1.62162Z" fill="#E3CB7B"/>
<path d="M28.7838 9.40542H1.21621C1.10869 9.40542 1.00558 9.36413 0.929547 9.29063C0.853518 9.21714 0.810806 9.11746 0.810806 9.01352V4.5342C0.810806 4.22239 0.938943 3.92335 1.16703 3.70287C1.39511 3.48239 1.70446 3.35852 2.02702 3.35852H6.15405C6.26157 3.35852 6.36469 3.39981 6.44071 3.4733C6.51674 3.5468 6.55945 3.64648 6.55945 3.75041C6.55945 3.85435 6.51674 3.95403 6.44071 4.02752C6.36469 4.10102 6.26157 4.1423 6.15405 4.1423H2.02702C1.9195 4.1423 1.81639 4.18359 1.74036 4.25709C1.66433 4.33058 1.62162 4.43026 1.62162 4.5342V8.62163H28.3784V4.5342C28.3784 4.43026 28.3357 4.33058 28.2596 4.25709C28.1836 4.18359 28.0805 4.1423 27.973 4.1423H23.8459C23.7384 4.1423 23.6353 4.10102 23.5593 4.02752C23.4832 3.95403 23.4405 3.85435 23.4405 3.75041C23.4405 3.64648 23.4832 3.5468 23.5593 3.4733C23.6353 3.39981 23.7384 3.35852 23.8459 3.35852H27.973C28.2955 3.35852 28.6049 3.48239 28.833 3.70287C29.061 3.92335 29.1892 4.22239 29.1892 4.5342V9.01352C29.1892 9.11746 29.1465 9.21714 29.0704 9.29063C28.9944 9.36413 28.8913 9.40542 28.7838 9.40542Z" fill="#E3CB7B"/>
<path d="M21.3567 4.1423H8.64323C8.53571 4.1423 8.4326 4.10102 8.35657 4.02752C8.28054 3.95403 8.23783 3.85435 8.23783 3.75041C8.23783 3.64648 8.28054 3.5468 8.35657 3.4733C8.4326 3.39981 8.53571 3.35852 8.64323 3.35852H21.3567C21.4643 3.35852 21.5674 3.39981 21.6434 3.4733C21.7194 3.5468 21.7621 3.64648 21.7621 3.75041C21.7621 3.85435 21.7194 3.95403 21.6434 4.02752C21.5674 4.10102 21.4643 4.1423 21.3567 4.1423Z" fill="#E3CB7B"/>
<path d="M22.6014 6.71428C22.1642 6.71386 21.7451 6.54581 21.436 6.247C21.1269 5.94819 20.953 5.54304 20.9526 5.12045V2.37721C20.9526 1.9545 21.1263 1.54911 21.4355 1.25021C21.7447 0.951307 22.1641 0.783386 22.6014 0.783386C23.0387 0.783386 23.458 0.951307 23.7672 1.25021C24.0764 1.54911 24.2502 1.9545 24.2502 2.37721V5.12045C24.2497 5.54304 24.0759 5.94819 23.7668 6.247C23.4577 6.54581 23.0385 6.71386 22.6014 6.71428ZM22.6014 1.56756C22.3792 1.56777 22.1662 1.65318 22.0091 1.80505C21.852 1.95691 21.7636 2.16283 21.7634 2.3776V5.12085C21.7634 5.33568 21.8517 5.54172 22.0088 5.69363C22.166 5.84554 22.3791 5.93089 22.6014 5.93089C22.8236 5.93089 23.0368 5.84554 23.1939 5.69363C23.3511 5.54172 23.4393 5.33568 23.4393 5.12085V2.3776C23.4391 2.16283 23.3508 1.95691 23.1937 1.80505C23.0366 1.65318 22.8236 1.56777 22.6014 1.56756Z" fill="#E3CB7B"/>
<path d="M7.39862 6.71428C6.96147 6.71386 6.54234 6.54581 6.23323 6.247C5.92411 5.94819 5.75027 5.54304 5.74984 5.12045V2.37721C5.74984 1.9545 5.92355 1.54911 6.23275 1.25021C6.54196 0.951307 6.96134 0.783386 7.39862 0.783386C7.83591 0.783386 8.25528 0.951307 8.56449 1.25021C8.8737 1.54911 9.04741 1.9545 9.04741 2.37721V5.12045C9.04698 5.54304 8.87313 5.94819 8.56402 6.247C8.2549 6.54581 7.83578 6.71386 7.39862 6.71428ZM7.39862 1.56756C7.17644 1.56777 6.96343 1.65318 6.80632 1.80505C6.64922 1.95691 6.56086 2.16283 6.56065 2.3776V5.12085C6.56065 5.33568 6.64893 5.54172 6.80608 5.69363C6.96324 5.84554 7.17638 5.93089 7.39862 5.93089C7.62087 5.93089 7.83401 5.84554 7.99116 5.69363C8.14831 5.54172 8.2366 5.33568 8.2366 5.12085V2.3776C8.23638 2.16283 8.14803 1.95691 7.99092 1.80505C7.83382 1.65318 7.6208 1.56777 7.39862 1.56756Z" fill="#E3CB7B"/>
<path d="M24.6369 13.1773H23.6891C23.5815 13.1773 23.4784 13.1361 23.4024 13.0626C23.3264 12.9891 23.2836 12.8894 23.2836 12.7854C23.2836 12.6815 23.3264 12.5818 23.4024 12.5083C23.4784 12.4348 23.5815 12.3936 23.6891 12.3936H24.6369C24.7444 12.3936 24.8475 12.4348 24.9236 12.5083C24.9996 12.5818 25.0423 12.6815 25.0423 12.7854C25.0423 12.8894 24.9996 12.9891 24.9236 13.0626C24.8475 13.1361 24.7444 13.1773 24.6369 13.1773Z" fill="#E3CB7B"/>
<path d="M20.0554 13.1773H19.1076C19 13.1773 18.8969 13.1361 18.8209 13.0626C18.7449 12.9891 18.7022 12.8894 18.7022 12.7854C18.7022 12.6815 18.7449 12.5818 18.8209 12.5083C18.8969 12.4348 19 12.3936 19.1076 12.3936H20.0554C20.1629 12.3936 20.266 12.4348 20.3421 12.5083C20.4181 12.5818 20.4608 12.6815 20.4608 12.7854C20.4608 12.8894 20.4181 12.9891 20.3421 13.0626C20.266 13.1361 20.1629 13.1773 20.0554 13.1773Z" fill="#E3CB7B"/>
<path d="M15.4739 13.1773H14.526C14.4185 13.1773 14.3154 13.1361 14.2394 13.0626C14.1633 12.9891 14.1206 12.8894 14.1206 12.7854C14.1206 12.6815 14.1633 12.5818 14.2394 12.5083C14.3154 12.4348 14.4185 12.3936 14.526 12.3936H15.4739C15.5814 12.3936 15.6845 12.4348 15.7605 12.5083C15.8366 12.5818 15.8793 12.6815 15.8793 12.7854C15.8793 12.8894 15.8366 12.9891 15.7605 13.0626C15.6845 13.1361 15.5814 13.1773 15.4739 13.1773Z" fill="#E3CB7B"/>
<path d="M24.6369 16.9328H23.6891C23.5815 16.9328 23.4784 16.8915 23.4024 16.818C23.3264 16.7446 23.2836 16.6449 23.2836 16.5409C23.2836 16.437 23.3264 16.3373 23.4024 16.2638C23.4784 16.1903 23.5815 16.149 23.6891 16.149H24.6369C24.7444 16.149 24.8475 16.1903 24.9236 16.2638C24.9996 16.3373 25.0423 16.437 25.0423 16.5409C25.0423 16.6449 24.9996 16.7446 24.9236 16.818C24.8475 16.8915 24.7444 16.9328 24.6369 16.9328Z" fill="#E3CB7B"/>
<path d="M20.0554 16.9328H19.1076C19 16.9328 18.8969 16.8915 18.8209 16.818C18.7449 16.7446 18.7022 16.6449 18.7022 16.5409C18.7022 16.437 18.7449 16.3373 18.8209 16.2638C18.8969 16.1903 19 16.149 19.1076 16.149H20.0554C20.1629 16.149 20.266 16.1903 20.3421 16.2638C20.4181 16.3373 20.4608 16.437 20.4608 16.5409C20.4608 16.6449 20.4181 16.7446 20.3421 16.818C20.266 16.8915 20.1629 16.9328 20.0554 16.9328Z" fill="#E3CB7B"/>
<path d="M15.4739 16.9328H14.526C14.4185 16.9328 14.3154 16.8915 14.2394 16.818C14.1633 16.7446 14.1206 16.6449 14.1206 16.5409C14.1206 16.437 14.1633 16.3373 14.2394 16.2638C14.3154 16.1903 14.4185 16.149 14.526 16.149H15.4739C15.5814 16.149 15.6845 16.1903 15.7605 16.2638C15.8366 16.3373 15.8793 16.437 15.8793 16.5409C15.8793 16.6449 15.8366 16.7446 15.7605 16.818C15.6845 16.8915 15.5814 16.9328 15.4739 16.9328Z" fill="#E3CB7B"/>
<path d="M10.8924 16.9328H9.94461C9.83709 16.9328 9.73397 16.8915 9.65794 16.818C9.58192 16.7446 9.5392 16.6449 9.5392 16.5409C9.5392 16.437 9.58192 16.3373 9.65794 16.2638C9.73397 16.1903 9.83709 16.149 9.94461 16.149H10.8924C11 16.149 11.1031 16.1903 11.1791 16.2638C11.2551 16.3373 11.2979 16.437 11.2979 16.5409C11.2979 16.6449 11.2551 16.7446 11.1791 16.818C11.1031 16.8915 11 16.9328 10.8924 16.9328Z" fill="#E3CB7B"/>
<path d="M6.31099 16.9328H5.36315C5.25563 16.9328 5.15252 16.8915 5.07649 16.818C5.00046 16.7446 4.95775 16.6449 4.95775 16.5409C4.95775 16.437 5.00046 16.3373 5.07649 16.2638C5.15252 16.1903 5.25563 16.149 5.36315 16.149H6.31099C6.41851 16.149 6.52163 16.1903 6.59766 16.2638C6.67369 16.3373 6.7164 16.437 6.7164 16.5409C6.7164 16.6449 6.67369 16.7446 6.59766 16.818C6.52163 16.8915 6.41851 16.9328 6.31099 16.9328Z" fill="#E3CB7B"/>
<path d="M24.6369 20.6888H23.6891C23.5815 20.6888 23.4784 20.6475 23.4024 20.574C23.3264 20.5005 23.2836 20.4008 23.2836 20.2969C23.2836 20.1929 23.3264 20.0932 23.4024 20.0198C23.4784 19.9463 23.5815 19.905 23.6891 19.905H24.6369C24.7444 19.905 24.8475 19.9463 24.9236 20.0198C24.9996 20.0932 25.0423 20.1929 25.0423 20.2969C25.0423 20.4008 24.9996 20.5005 24.9236 20.574C24.8475 20.6475 24.7444 20.6888 24.6369 20.6888Z" fill="#E3CB7B"/>
<path d="M20.0554 20.6888H19.1076C19 20.6888 18.8969 20.6475 18.8209 20.574C18.7449 20.5005 18.7022 20.4008 18.7022 20.2969C18.7022 20.1929 18.7449 20.0932 18.8209 20.0198C18.8969 19.9463 19 19.905 19.1076 19.905H20.0554C20.1629 19.905 20.266 19.9463 20.3421 20.0198C20.4181 20.0932 20.4608 20.1929 20.4608 20.2969C20.4608 20.4008 20.4181 20.5005 20.3421 20.574C20.266 20.6475 20.1629 20.6888 20.0554 20.6888Z" fill="#E3CB7B"/>
<path d="M15.4739 20.6888H14.526C14.4185 20.6888 14.3154 20.6475 14.2394 20.574C14.1633 20.5005 14.1206 20.4008 14.1206 20.2969C14.1206 20.1929 14.1633 20.0932 14.2394 20.0198C14.3154 19.9463 14.4185 19.905 14.526 19.905H15.4739C15.5814 19.905 15.6845 19.9463 15.7605 20.0198C15.8366 20.0932 15.8793 20.1929 15.8793 20.2969C15.8793 20.4008 15.8366 20.5005 15.7605 20.574C15.6845 20.6475 15.5814 20.6888 15.4739 20.6888Z" fill="#E3CB7B"/>
<path d="M10.8924 20.6888H9.94461C9.83709 20.6888 9.73397 20.6475 9.65794 20.574C9.58192 20.5005 9.5392 20.4008 9.5392 20.2969C9.5392 20.1929 9.58192 20.0932 9.65794 20.0198C9.73397 19.9463 9.83709 19.905 9.94461 19.905H10.8924C11 19.905 11.1031 19.9463 11.1791 20.0198C11.2551 20.0932 11.2979 20.1929 11.2979 20.2969C11.2979 20.4008 11.2551 20.5005 11.1791 20.574C11.1031 20.6475 11 20.6888 10.8924 20.6888Z" fill="#E3CB7B"/>
<path d="M6.31099 20.6888H5.36315C5.25563 20.6888 5.15252 20.6475 5.07649 20.574C5.00046 20.5005 4.95775 20.4008 4.95775 20.2969C4.95775 20.1929 5.00046 20.0932 5.07649 20.0198C5.15252 19.9463 5.25563 19.905 5.36315 19.905H6.31099C6.41851 19.905 6.52163 19.9463 6.59766 20.0198C6.67369 20.0932 6.7164 20.1929 6.7164 20.2969C6.7164 20.4008 6.67369 20.5005 6.59766 20.574C6.52163 20.6475 6.41851 20.6888 6.31099 20.6888Z" fill="#E3CB7B"/>
<path d="M15.4739 24.4442H14.526C14.4185 24.4442 14.3154 24.403 14.2394 24.3295C14.1633 24.256 14.1206 24.1563 14.1206 24.0524C14.1206 23.9484 14.1633 23.8487 14.2394 23.7752C14.3154 23.7017 14.4185 23.6605 14.526 23.6605H15.4739C15.5814 23.6605 15.6845 23.7017 15.7605 23.7752C15.8366 23.8487 15.8793 23.9484 15.8793 24.0524C15.8793 24.1563 15.8366 24.256 15.7605 24.3295C15.6845 24.403 15.5814 24.4442 15.4739 24.4442Z" fill="#E3CB7B"/>
<path d="M10.8924 24.4442H9.94461C9.83709 24.4442 9.73397 24.403 9.65794 24.3295C9.58192 24.256 9.5392 24.1563 9.5392 24.0524C9.5392 23.9484 9.58192 23.8487 9.65794 23.7752C9.73397 23.7017 9.83709 23.6605 9.94461 23.6605H10.8924C11 23.6605 11.1031 23.7017 11.1791 23.7752C11.2551 23.8487 11.2979 23.9484 11.2979 24.0524C11.2979 24.1563 11.2551 24.256 11.1791 24.3295C11.1031 24.403 11 24.4442 10.8924 24.4442Z" fill="#E3CB7B"/>
<path d="M6.31099 24.4442H5.36315C5.25563 24.4442 5.15252 24.403 5.07649 24.3295C5.00046 24.256 4.95775 24.1563 4.95775 24.0524C4.95775 23.9484 5.00046 23.8487 5.07649 23.7752C5.15252 23.7017 5.25563 23.6605 5.36315 23.6605H6.31099C6.41851 23.6605 6.52163 23.7017 6.59766 23.7752C6.67369 23.8487 6.7164 23.9484 6.7164 24.0524C6.7164 24.1563 6.67369 24.256 6.59766 24.3295C6.52163 24.403 6.41851 24.4442 6.31099 24.4442Z" fill="#E3CB7B"/>
</svg>
