<svg width="43" height="41" viewBox="0 0 43 41" fill="none" xmlns="http://www.w3.org/2000/svg">
<g clip-path="url(#clip0)">
<path d="M36.8331 18.5183C38.0571 17.6933 38.8675 16.321 38.8675 14.7742C38.8675 12.2437 36.7339 10.1972 34.0957 10.1972C31.4576 10.1972 29.3239 12.2437 29.3239 14.7742C29.3239 16.321 30.1261 17.6933 31.3584 18.5183C30.3081 18.8673 29.3488 19.4067 28.5383 20.1048C27.4219 19.1925 26.1069 18.4945 24.6679 18.082C26.4129 17.0666 27.5873 15.2184 27.5873 13.1163C27.5873 9.91159 24.883 7.31769 21.5419 7.31769C18.2008 7.31769 15.4965 9.91953 15.4965 13.1163C15.4965 15.2184 16.6626 17.0666 18.4158 18.082C16.9934 18.4945 15.695 19.1846 14.5868 20.081C13.7764 19.3988 12.8336 18.8673 11.7999 18.5262C13.0238 17.7012 13.8343 16.3289 13.8343 14.7821C13.8343 12.2517 11.7006 10.2051 9.06249 10.2051C6.42437 10.2051 4.29071 12.2517 4.29071 14.7821C4.29071 16.3289 5.0929 17.7012 6.32513 18.5262C3.04194 19.613 0.684998 22.6035 0.684998 26.1175V26.6411C0.684998 26.657 0.701538 26.6728 0.718077 26.6728H10.8323C10.7744 27.1091 10.7413 27.5612 10.7413 28.0134V28.5528C10.7413 30.8849 12.7096 32.7729 15.1409 32.7729H27.9594C30.3908 32.7729 32.359 30.8849 32.359 28.5528V28.0134C32.359 27.5612 32.326 27.1091 32.2681 26.6728H42.4484C42.465 26.6728 42.4815 26.657 42.4815 26.6411V26.1175C42.465 22.5955 40.1163 19.605 36.8331 18.5183ZM30.6471 14.7662C30.6471 12.9418 32.1936 11.4584 34.0957 11.4584C35.9978 11.4584 37.5443 12.9418 37.5443 14.7662C37.5443 16.5669 36.0309 18.0344 34.1619 18.0741C34.1371 18.0741 34.1205 18.0741 34.0957 18.0741C34.0709 18.0741 34.0544 18.0741 34.0296 18.0741C32.1523 18.0423 30.6471 16.5748 30.6471 14.7662ZM16.8032 13.1163C16.8032 10.6176 18.9203 8.58688 21.5254 8.58688C24.1304 8.58688 26.2475 10.6176 26.2475 13.1163C26.2475 15.5278 24.271 17.5029 21.7983 17.6378C21.7073 17.6378 21.6163 17.6378 21.5254 17.6378C21.4344 17.6378 21.3434 17.6378 21.2524 17.6378C18.7797 17.5029 16.8032 15.5278 16.8032 13.1163ZM5.5891 14.7662C5.5891 12.9418 7.13558 11.4584 9.03768 11.4584C10.9398 11.4584 12.4863 12.9418 12.4863 14.7662C12.4863 16.5669 10.9729 18.0344 9.10384 18.0741C9.07903 18.0741 9.06249 18.0741 9.03768 18.0741C9.01287 18.0741 8.99633 18.0741 8.97152 18.0741C7.1025 18.0423 5.5891 16.5748 5.5891 14.7662ZM11.0638 25.3957H2.02473C2.39688 22.0165 5.37408 19.367 8.98806 19.3433C9.0046 19.3433 9.02114 19.3433 9.03768 19.3433C9.05422 19.3433 9.07076 19.3433 9.0873 19.3433C10.8075 19.3512 12.3788 19.962 13.5944 20.9535C12.4036 22.191 11.5187 23.714 11.0638 25.3957ZM31.0193 28.5528C31.0193 30.179 29.6382 31.5037 27.9429 31.5037H15.1244C13.429 31.5037 12.048 30.179 12.048 28.5528V28.0134C12.048 23.0874 16.1499 19.0577 21.2524 18.9149C21.3434 18.9228 21.4427 18.9228 21.5336 18.9228C21.6246 18.9228 21.7238 18.9228 21.8148 18.9149C26.9174 19.0577 31.0193 23.0874 31.0193 28.0134V28.5528ZM32.0034 25.3957C31.5486 23.722 30.6802 22.2227 29.4976 20.9853C30.7216 19.9699 32.3094 19.3591 34.0461 19.3433C34.0626 19.3433 34.0792 19.3433 34.0957 19.3433C34.1123 19.3433 34.1288 19.3433 34.1454 19.3433C37.7593 19.367 40.7365 22.0165 41.1087 25.3957H32.0034Z" fill="#E3CB7B"/>
</g>
<defs>
<clipPath id="clip0">
<rect width="41.7965" height="40.0905" fill="white" transform="translate(0.684998)"/>
</clipPath>
</defs>
</svg>
