<svg width="26" height="26" viewBox="0 0 26 26" fill="none" xmlns="http://www.w3.org/2000/svg">
<path d="M18.3328 19.9062V21.9375C18.3328 24.1776 16.5104 26 14.2702 26H4.06268C1.82245 26 0 24.1776 0 21.9375V4.0625C0 1.82237 1.82245 0 4.06268 0H14.2702C16.5104 0 18.3328 1.82237 18.3328 4.0625V6.09375C18.3328 6.65472 17.8782 7.10938 17.3172 7.10938C16.7562 7.10938 16.3015 6.65472 16.3015 6.09375V4.0625C16.3015 2.94254 15.3902 2.03125 14.2702 2.03125H4.06268C2.94266 2.03125 2.03134 2.94254 2.03134 4.0625V21.9375C2.03134 23.0575 2.94266 23.9688 4.06268 23.9688H14.2702C15.3902 23.9688 16.3015 23.0575 16.3015 21.9375V19.9062C16.3015 19.3453 16.7562 18.8906 17.3172 18.8906C17.8782 18.8906 18.3328 19.3453 18.3328 19.9062ZM25.2574 11.2554L22.9831 8.98114C22.5863 8.58441 21.9432 8.58441 21.5467 8.98114C21.1499 9.37767 21.1499 10.0208 21.5467 10.4173L23.1644 12.0352H10.9692C10.4082 12.0352 9.95356 12.4898 9.95356 13.0508C9.95356 13.6118 10.4082 14.0664 10.9692 14.0664H23.1644L21.5467 15.6843C21.1499 16.0808 21.1499 16.7239 21.5467 17.1204C21.745 17.3188 22.0049 17.418 22.2648 17.418C22.5249 17.418 22.7847 17.3188 22.9831 17.1204L25.2574 14.8462C26.2475 13.8561 26.2475 12.2454 25.2574 11.2554Z" fill="white"/>
</svg>
