<svg width="42" height="39" viewBox="0 0 42 39" fill="none" xmlns="http://www.w3.org/2000/svg">
<g clip-path="url(#clip0)">
<path d="M41.0888 19.3284C41.0888 8.67075 32.0239 0 20.8818 0C9.73974 0 0.674866 8.67075 0.674866 19.3284C0.674866 26.5763 4.86797 32.904 11.055 36.2119C11.0994 36.2429 11.1475 36.2691 11.1992 36.2891C14.0761 37.7977 17.3759 38.6568 20.8818 38.6568C24.3877 38.6568 27.6876 37.7977 30.5644 36.2891C30.6161 36.2691 30.6643 36.2429 30.7087 36.2118C36.8957 32.904 41.0888 26.5763 41.0888 19.3284ZM2.02202 19.3284C2.02202 9.38137 10.4827 1.28859 20.8818 1.28859C31.281 1.28859 39.7416 9.38137 39.7416 19.3284C39.7416 25.7226 36.2451 31.3501 30.9853 34.5547V30.9257C30.9853 27.5104 29.063 24.3135 25.9673 22.5836C25.7477 22.4612 25.4749 22.4676 25.2614 22.5984C22.6392 24.2207 19.1245 24.2207 16.5024 22.5984C16.2895 22.4676 16.0161 22.4611 15.7965 22.5836C12.7007 24.3135 10.7783 27.5104 10.7783 30.9257V34.5546C5.51854 31.3501 2.02202 25.7226 2.02202 19.3284ZM12.1255 35.3019V30.9257C12.1255 28.0935 13.6532 25.4339 16.1366 23.896C19.0214 25.5093 22.7422 25.5093 25.6272 23.896C28.1106 25.4339 29.6382 28.0935 29.6382 30.9257V35.3019C27.0199 36.6204 24.0407 37.3683 20.8819 37.3683C17.7232 37.3683 14.7438 36.6204 12.1255 35.3019Z" fill="#E3CB7B"/>
<path d="M20.8818 21.2612C24.5959 21.2612 27.6174 18.3709 27.6174 14.8184C27.6174 11.2659 24.5959 8.37555 20.8818 8.37555C17.1678 8.37555 14.1462 11.2658 14.1462 14.8183C14.1462 18.3708 17.1678 21.2612 20.8818 21.2612ZM20.8818 9.66413C23.8529 9.66413 26.2704 11.9764 26.2704 14.8184C26.2704 17.6603 23.8529 19.9727 20.8818 19.9727C17.9107 19.9727 15.4933 17.6603 15.4933 14.8184C15.4933 11.9764 17.9107 9.66413 20.8818 9.66413Z" fill="#E3CB7B"/>
</g>
<defs>
<clipPath id="clip0">
<rect width="40.4139" height="38.6568" fill="white" transform="translate(0.674866)"/>
</clipPath>
</defs>
</svg>
