<svg width="32" height="32" viewBox="0 0 32 32" fill="none" xmlns="http://www.w3.org/2000/svg">
<g clip-path="url(#clip0)">
<path d="M19.7899 21.329C19.4497 21.329 19.1736 21.597 19.1736 21.9272C19.1736 22.2573 19.4497 22.5253 19.7899 22.5253C20.13 22.5253 20.4061 22.2573 20.4061 21.9272C20.4061 21.597 20.13 21.329 19.7899 21.329Z" fill="#E3CB7B"/>
<path d="M28.7869 0.634399H3.39801C1.69903 0.634399 0.316833 1.97594 0.316833 3.62495V21.9271C0.316833 23.5762 1.69903 24.9177 3.39801 24.9177H13.0113V27.669H12.395C11.5723 27.669 10.7989 27.9802 10.2166 28.5451C9.6345 29.1103 9.31387 29.861 9.31387 30.6596C9.31387 30.9899 9.58973 31.2577 9.9301 31.2577H22.2548C22.5952 31.2577 22.871 30.9899 22.871 30.6596C22.871 29.0105 21.4888 27.669 19.7899 27.669H19.1736V24.9177H28.7869C30.4859 24.9177 31.8681 23.5762 31.8681 21.9271V3.62495C31.8681 1.97594 30.4859 0.634399 28.7869 0.634399ZM3.39801 1.83062H28.7869C29.8063 1.83062 30.6356 2.6355 30.6356 3.62495V18.9366H27.8009V5.18004C27.8009 4.84968 27.5251 4.58193 27.1847 4.58193H22.2548C21.9144 4.58193 21.6386 4.84968 21.6386 5.18004V18.9366H18.554C18.5475 18.3179 18.5309 17.7081 18.5044 17.1166C18.3966 14.6807 18.1508 13.0489 18.023 12.3312C19.2945 11.4226 19.6416 9.73853 18.8643 8.43016L16.7284 4.83963C16.6182 4.65459 16.4148 4.54058 16.1948 4.54058C15.9745 4.54058 15.7711 4.65459 15.6611 4.83963L13.5242 8.4304C12.7915 9.664 13.0512 11.2618 14.2023 12.2048C14.069 12.9204 13.7999 14.6106 13.6829 17.1154C13.6552 17.7133 13.6376 18.3235 13.6309 18.9366H10.5463V9.96493C10.5463 9.87007 10.5232 9.78362 10.4854 9.70676C10.4838 9.70372 10.4828 9.70045 10.4813 9.69741L8.0164 4.91253C7.91193 4.70996 7.69866 4.58193 7.46516 4.58193C7.23167 4.58193 7.01839 4.70996 6.91392 4.91253L4.44898 9.69741C4.44754 9.70045 4.44657 9.70372 4.44513 9.70676C4.40661 9.78432 4.38399 9.87217 4.38399 9.96493V18.9366H1.5493V3.62495C1.5493 2.6355 2.37857 1.83062 3.39801 1.83062ZM22.871 18.9366V5.77815H26.5685V6.97437H25.9522C25.6118 6.97437 25.336 7.24212 25.336 7.57248C25.336 7.90285 25.6118 8.17059 25.9522 8.17059H26.5685V9.96493H25.9522C25.6118 9.96493 25.336 10.2327 25.336 10.563C25.336 10.8934 25.6118 11.1611 25.9522 11.1611H26.5685V12.9555H25.9522C25.6118 12.9555 25.336 13.2232 25.336 13.5536C25.336 13.884 25.6118 14.1517 25.9522 14.1517H26.5685V16.5441H25.9522C25.6118 16.5441 25.336 16.8119 25.336 17.1423C25.336 17.4726 25.6118 17.7404 25.9522 17.7404H26.5685V18.9366H22.871ZM16.1948 12.9141C16.4186 12.9141 16.6415 12.8891 16.8596 12.8424C16.974 13.5538 17.142 14.8127 17.2414 16.5441H14.9476C15.0518 14.8138 15.2278 13.5354 15.3494 12.7999C15.6223 12.8753 15.9066 12.9141 16.1948 12.9141ZM16.1948 11.7179C14.7863 11.7179 13.8781 10.2301 14.5918 9.02828L16.1948 6.33491L17.7967 9.02804C18.5078 10.225 17.6121 11.7179 16.1948 11.7179ZM14.891 17.7404H17.2956C17.3086 18.1333 17.3175 18.5331 17.3218 18.9366H14.8634C14.8679 18.5357 14.8773 18.1359 14.891 17.7404ZM8.0814 18.9366V10.563H9.31387V18.9366H8.0814ZM5.61646 18.9366V10.563H6.84893V18.9366H5.61646ZM5.99727 9.36682L7.46516 6.51738L8.93305 9.36682H5.99727ZM21.5329 30.0614H10.6513C10.7418 29.8122 10.8896 29.5837 11.088 29.3909C11.4375 29.0519 11.9016 28.8652 12.395 28.8652H19.7899C20.5934 28.8652 21.2787 29.3652 21.5329 30.0614ZM17.9412 27.669H14.2438V24.9177H17.9412V27.669ZM28.7869 23.7215H3.39801C2.37857 23.7215 1.5493 22.9166 1.5493 21.9271V20.1328H30.6356V21.9271C30.6356 22.9166 29.8063 23.7215 28.7869 23.7215Z" fill="#E3CB7B"/>
<path d="M17.3249 21.329H13.6275C13.2871 21.329 13.0113 21.5968 13.0113 21.9272C13.0113 22.2575 13.2871 22.5253 13.6275 22.5253H17.3249C17.6653 22.5253 17.9412 22.2575 17.9412 21.9272C17.9412 21.5968 17.6653 21.329 17.3249 21.329Z" fill="#E3CB7B"/>
</g>
<defs>
<clipPath id="clip0">
<rect width="31.5512" height="30.6233" fill="white" transform="translate(0.316833 0.634399)"/>
</clipPath>
</defs>
</svg>
