<svg width="29" height="29" viewBox="0 0 29 29" fill="none" xmlns="http://www.w3.org/2000/svg">
<path d="M16.2621 11.4203C14.8393 11.4203 13.6818 12.5778 13.6818 14.0006C13.6818 15.4234 14.8393 16.5809 16.2621 16.5809C17.685 16.5809 18.8424 15.4234 18.8424 14.0006C18.8424 12.5778 17.685 11.4203 16.2621 11.4203ZM16.2621 15.2245C15.5872 15.2245 15.0381 14.6754 15.0381 14.0005C15.0381 13.3257 15.5872 12.7766 16.2621 12.7766C16.9371 12.7766 17.4861 13.3257 17.4861 14.0005C17.4861 14.6755 16.9371 15.2245 16.2621 15.2245ZM22.9164 15.3557L22.0401 14.7208C22.0696 14.4824 22.0843 14.2417 22.0843 14.0011C22.0843 13.7641 22.07 13.5271 22.0415 13.2926L22.918 12.6575C23.1421 12.5116 23.4476 12.1676 23.3013 11.4093C23.2311 11.0463 23.0633 10.6225 22.8287 10.2161C22.1784 9.08949 21.3904 8.59653 20.7612 8.91663L19.7747 9.35744C19.3905 9.0659 18.9749 8.82523 18.5324 8.63813L18.4215 7.57023C18.388 6.86244 17.5671 6.42494 16.2622 6.42494C14.9611 6.42494 14.14 6.86124 14.1031 7.56669L13.9918 8.6382C13.5492 8.82538 13.1336 9.06613 12.7496 9.35759L11.7652 8.91784C11.5268 8.7969 11.0761 8.70429 10.4928 9.21013C10.2134 9.45231 9.93033 9.80964 9.69576 10.2161C9.04547 11.3422 9.01224 12.271 9.60375 12.6562L10.4828 13.293C10.4543 13.5278 10.4399 13.7647 10.4399 14.0012C10.4399 14.2417 10.4547 14.4823 10.4842 14.7207L9.60474 15.3579C9.01231 15.7425 9.04509 16.6718 9.69569 17.7984C9.93033 18.205 10.2134 18.5622 10.4928 18.8044C11.0763 19.3103 11.527 19.2176 11.7652 19.0966L12.7596 18.6524C13.1407 18.9403 13.5524 19.1782 13.9906 19.3637L14.103 20.4477C14.1397 21.1534 14.961 21.5897 16.2621 21.5897C17.567 21.5897 18.3879 21.1522 18.4215 20.4443L18.5336 19.3637C18.9718 19.1782 19.3836 18.9403 19.7645 18.6525L20.7611 19.0978C21.3904 19.4182 22.1783 18.9249 22.8285 17.7985C23.4811 16.6684 23.5127 15.7387 22.9164 15.3557ZM20.6413 13.1209C20.6988 13.4083 20.7279 13.7045 20.7279 14.0011C20.7279 14.3004 20.6981 14.5998 20.6394 14.891C20.5869 15.1515 20.6912 15.4185 20.9063 15.5743L21.9703 16.3452C21.9393 16.504 21.8488 16.7826 21.6539 17.1203C21.4588 17.4579 21.2629 17.6756 21.1408 17.7819L19.9366 17.2437C19.6943 17.1353 19.4109 17.1784 19.2118 17.3539C18.7627 17.7494 18.2494 18.046 17.686 18.2353C17.4342 18.32 17.255 18.5439 17.2276 18.8082L17.0914 20.1198C16.9384 20.1723 16.6519 20.2332 16.2621 20.2332C15.872 20.2332 15.5855 20.1723 15.4325 20.1198L15.2965 18.8083C15.2691 18.544 15.0899 18.32 14.8381 18.2353C14.2747 18.046 13.7614 17.7494 13.3122 17.3539C13.113 17.1784 12.83 17.1353 12.5874 17.2436L11.3831 17.7816C11.2611 17.6754 11.0651 17.4577 10.8702 17.1201C10.6752 16.7824 10.5847 16.5037 10.5537 16.345L11.6177 15.574C11.8328 15.4182 11.9371 15.1512 11.8846 14.8909C11.826 14.5996 11.7961 14.3002 11.7961 14.0011C11.7961 13.7054 11.8254 13.4092 11.8829 13.1206C11.9347 12.8607 11.8304 12.5943 11.6157 12.4388L10.5537 11.6695C10.5846 11.5107 10.6751 11.232 10.8702 10.8942C11.065 10.5567 11.2611 10.339 11.383 10.2327L12.5782 10.7668C12.8213 10.8753 13.1051 10.8317 13.3043 10.6555C13.7554 10.2563 14.2718 9.95718 14.839 9.76668C15.0909 9.68206 15.2702 9.45812 15.2976 9.19378L15.4324 7.89477C15.5854 7.84225 15.872 7.78129 16.262 7.78129C16.6518 7.78129 16.9383 7.84218 17.0913 7.8947L17.2261 9.19378C17.2536 9.45812 17.4329 9.68206 17.6849 9.76668C18.2519 9.95703 18.7683 10.256 19.2197 10.6554C19.419 10.8316 19.7027 10.8752 19.9458 10.7666L21.1408 10.2326C21.2627 10.3388 21.4588 10.5565 21.6538 10.8943C21.8487 11.2318 21.9392 11.5103 21.9703 11.6692L20.9082 12.4387C20.6936 12.5944 20.5893 12.8609 20.6413 13.1209ZM24.254 3.46622H8.27024C5.69159 3.46622 3.61156 5.55756 3.61156 8.13628V21.354L1.42633 23.2981V7.97314C1.42626 4.3098 4.44375 1.35635 8.10718 1.35635H20.7671C21.4788 1.35635 22.1586 1.56764 22.7331 1.99278C23.0341 2.21559 23.4588 2.14544 23.6817 1.84441C23.9045 1.54337 23.841 1.12878 23.54 0.905965C22.7303 0.306685 21.7714 0 20.767 0H8.10718C3.69595 0 0.0699081 3.56192 0.0699081 7.97314V24.8353C0.0699081 25.1039 0.247062 25.3473 0.492938 25.4557C0.738739 25.5641 1.04362 25.5173 1.24209 25.3361L3.61156 23.1902V28.3218C3.61156 28.5905 3.76121 28.8338 4.00709 28.9423C4.09502 28.9811 4.18371 29 4.27625 29C4.44225 29 4.60388 28.939 4.73138 28.8228L8.6721 25.2253C8.79469 25.1134 8.89883 25.0157 8.99023 24.9304C9.17884 24.7544 9.35675 24.5882 9.41575 24.565C9.47114 24.5433 9.70496 24.5522 9.95241 24.5554C10.0863 24.5572 10.2416 24.565 10.4246 24.565H24.2541C26.8328 24.565 28.9301 22.4556 28.9301 19.8769V8.13628C28.93 5.55756 26.8326 3.46622 24.254 3.46622ZM27.5736 19.8769C27.5736 21.7077 26.0847 23.2086 24.254 23.2086H10.4245C10.2486 23.2086 10.0992 23.2009 9.97042 23.1992C8.97079 23.1858 8.81029 23.2457 8.0643 23.9416C7.97606 24.0239 7.88376 24.1169 7.76538 24.225L4.96791 26.7847V21.6539C4.96791 21.6533 4.96791 21.6527 4.96791 21.6521V8.13628C4.96783 6.30544 6.43947 4.82257 8.27024 4.82257H24.254C26.0848 4.82257 27.5737 6.30544 27.5737 8.13628V19.8769H27.5736Z" fill="#E3CB7B"/>
</svg>
